<?xml version="1.0" encoding="utf-8"?>
<!-- Generator: Adobe Illustrator 19.0.0, SVG Export Plug-In . SVG Version: 6.00 Build 0)  -->
<svg version="1.1" id="Layer_1" xmlns="http://www.w3.org/2000/svg" xmlns:xlink="http://www.w3.org/1999/xlink" x="0px" y="0px"
	 viewBox="7.5 7.5 50 50" style="enable-background:new 7.5 7.5 50 50;" xml:space="preserve">
<style type="text/css">
	.st0{fill:#50C13D;}
</style>
<g>
	<g>
		<path class="st0" d="M20.4,33.5c7.7,0,15.4,0,23.2,0c1.9,0,1.9-3,0-3c-7.7,0-15.4,0-23.2,0C18.5,30.5,18.5,33.5,20.4,33.5
			L20.4,33.5z"/>
	</g>
</g>
<g>
	<g>
		<path class="st0" d="M20.4,26.5c7.7,0,15.4,0,23.2,0c1.9,0,1.9-3,0-3c-7.7,0-15.4,0-23.2,0C18.5,23.5,18.5,26.5,20.4,26.5
			L20.4,26.5z"/>
	</g>
</g>
<g>
	<g>
		<path class="st0" d="M20.4,40.5c7.7,0,15.4,0,23.2,0c1.9,0,1.9-3,0-3c-7.7,0-15.4,0-23.2,0C18.5,37.5,18.5,40.5,20.4,40.5
			L20.4,40.5z"/>
	</g>
</g>
</svg>
